nColumns=28
nRows=80
DataType=double
version=3
OpenSimVersion=4.1
endheader
time	ground_force_1_vx	ground_force_1_vy	ground_force_1_vz	ground_force_1_px	ground_force_1_py	ground_force_1_pz	ground_force_1_mx	ground_force_1_my	ground_force_1_mz	ground_force_2_vx	ground_force_2_vy	ground_force_2_vz	ground_force_2_px	ground_force_2_py	ground_force_2_pz	ground_force_2_mx	ground_force_2_my	ground_force_2_mz	ground_force_3_vx	ground_force_3_vy	ground_force_3_vz	ground_force_3_px	ground_force_3_py	ground_force_3_pz	ground_force_3_mx	ground_force_3_my	ground_force_3_mz
0	-0.0411428	270.569	-27.6238	-0.237288	0.006	-0.423384	0	-1.20609	0	0.10033	280.176	27.3668	-0.237309	0.006	-0.753788	0	1.65589	0	0	0	0	0	0	0	0	0	0
0.01	0.0148392	270.847	-27.6671	-0.237289	0.006	-0.423242	0	-1.21805	0	0.141929	280.096	27.3737	-0.237223	0.006	-0.753883	0	1.6584	0	0	0	0	0	0	0	0	0	0
0.02	0.0696125	271.17	-27.7147	-0.237292	0.006	-0.423104	0	-1.22985	0	0.178451	280.08	27.3897	-0.237091	0.006	-0.753978	0	1.66255	0	0	0	0	0	0	0	0	0	0
0.03	0.119672	271.542	-27.7674	-0.237296	0.006	-0.422974	0	-1.24103	0	0.205212	280.153	27.4165	-0.236905	0.006	-0.754072	0	1.66874	0	0	0	0	0	0	0	0	0	0
0.04	0.161038	271.972	-27.8267	-0.237298	0.006	-0.422854	0	-1.25127	0	0.216514	280.34	27.4551	-0.23666	0.006	-0.754164	0	1.67743	0	0	0	0	0	0	0	0	0	0
0.05	0.188797	272.47	-27.8943	-0.237297	0.006	-0.422746	0	-1.26035	0	0.205344	280.662	27.5061	-0.236347	0.006	-0.75425	0	1.68902	0	0	0	0	0	0	0	0	0	0
0.06	0.197238	273.039	-27.9713	-0.237289	0.006	-0.422648	0	-1.26804	0	0.163282	281.136	27.569	-0.235963	0.006	-0.754332	0	1.70395	0	0	0	0	0	0	0	0	0	0
0.07	0.180345	273.68	-28.0588	-0.237271	0.006	-0.422561	0	-1.27405	0	0.0805329	281.774	27.6425	-0.235502	0.006	-0.754405	0	1.72272	0	0	0	0	0	0	0	0	0	0
0.08	0.132327	274.388	-28.1571	-0.237239	0.006	-0.422483	0	-1.27809	0	-0.0541691	282.577	27.7235	-0.234962	0.006	-0.754471	0	1.7458	0	0	0	0	0	0	0	0	0	0
0.09	0.047999	275.153	-28.2656	-0.237192	0.006	-0.422413	0	-1.27983	0	-0.253321	283.54	27.807	-0.23434	0.006	-0.754528	0	1.77354	0	0	0	0	0	0	0	0	0	0
0.1	-0.0773738	275.957	-28.3822	-0.237127	0.006	-0.422349	0	-1.27886	0	-0.530092	284.645	27.8856	-0.233635	0.006	-0.754574	0	1.80612	0	0	0	0	0	0	0	0	0	0
0.11	-0.247994	276.768	-28.5025	-0.237042	0.006	-0.422289	0	-1.27466	0	-0.89738	285.863	27.9497	-0.232851	0.006	-0.754607	0	1.84335	0	0	0	0	0	0	0	0	0	0
0.12	-0.467234	277.543	-28.6195	-0.236935	0.006	-0.422233	0	-1.2666	0	-1.3668	287.157	27.9884	-0.231989	0.006	-0.754625	0	1.8846	0	0	0	0	0	0	0	0	0	0
0.13	-0.737295	278.225	-28.7233	-0.236808	0.006	-0.422178	0	-1.25411	0	-1.94732	288.48	27.9916	-0.231059	0.006	-0.754628	0	1.92897	0	0	0	0	0	0	0	0	0	0
0.14	-1.05888	278.749	-28.802	-0.236659	0.006	-0.422127	0	-1.23663	0	-2.64378	289.781	27.9522	-0.23007	0.006	-0.754613	0	1.97522	0	0	0	0	0	0	0	0	0	0
0.15	-1.43087	279.045	-28.843	-0.23649	0.006	-0.422082	0	-1.21381	0	-3.45536	291.006	27.8674	-0.229036	0.006	-0.754582	0	2.0217	0	0	0	0	0	0	0	0	0	0
0.16	-1.85029	279.045	-28.8335	-0.236302	0.006	-0.422046	0	-1.18547	0	-4.37412	292.096	27.7397	-0.227974	0.006	-0.754537	0	2.06636	0	0	0	0	0	0	0	0	0	0
0.17	-2.31232	278.694	-28.7624	-0.2361	0.006	-0.42202	0	-1.15175	0	-5.38475	292.995	27.5765	-0.226903	0.006	-0.754479	0	2.10695	0	0	0	0	0	0	0	0	0	0
0.18	-2.81028	277.953	-28.621	-0.235892	0.006	-0.422009	0	-1.1131	0	-6.4652	293.656	27.39	-0.22585	0.006	-0.754413	0	2.14113	0	0	0	0	0	0	0	0	0	0
0.19	-3.33529	276.808	-28.4046	-0.235687	0.006	-0.422013	0	-1.07036	0	-7.58757	294.037	27.1951	-0.224841	0.006	-0.754343	0	2.16663	0	0	0	0	0	0	0	0	0	0
0.2	-3.87601	275.27	-28.1132	-0.2355	0.006	-0.422033	0	-1.02478	0	-8.71922	294.105	27.0074	-0.223906	0.006	-0.754273	0	2.18155	0	0	0	0	0	0	0	0	0	0
0.21	-4.41925	273.369	-27.7506	-0.235349	0.006	-0.422072	0	-0.97786	0	-9.82504	293.838	26.8395	-0.223075	0.006	-0.754206	0	2.18455	0	0	0	0	0	0	0	0	0	0
0.22	-4.95052	271.147	-27.3239	-0.235253	0.006	-0.42213	0	-0.931125	0	-10.8699	293.227	26.6975	-0.222377	0.006	-0.754143	0	2.1751	0	0	0	0	0	0	0	0	0	0
0.23	-5.45412	268.657	-26.8425	-0.235237	0.006	-0.422208	0	-0.886083	0	-11.8209	292.276	26.5793	-0.221836	0.006	-0.754083	0	2.15364	0	0	0	0	0	0	0	0	0	0
0.24	-5.9142	265.951	-26.3167	-0.235326	0.006	-0.422308	0	-0.844067	0	-12.6489	291.005	26.4748	-0.221475	0.006	-0.754024	0	2.12151	0	0	0	0	0	0	0	0	0	0
0.25	-6.31558	263.082	-25.7564	-0.235543	0.006	-0.422427	0	-0.806052	0	-13.3298	289.44	26.3677	-0.221313	0.006	-0.753963	0	2.08059	0	0	0	0	0	0	0	0	0	0
0.26	-6.64399	260.09	-25.1707	-0.235911	0.006	-0.422565	0	-0.77272	0	-13.8447	287.606	26.2385	-0.221364	0.006	-0.753894	0	2.03299	0	0	0	0	0	0	0	0	0	0
0.27	-6.88668	257.008	-24.5676	-0.236451	0.006	-0.422722	0	-0.7444	0	-14.1803	285.52	26.0683	-0.221639	0.006	-0.753814	0	1.98069	0	0	0	0	0	0	0	0	0	0
0.28	-7.03303	253.851	-23.9542	-0.237174	0.006	-0.422895	0	-0.721065	0	-14.33	283.184	25.8418	-0.222141	0.006	-0.753719	0	1.9252	0	0	0	0	0	0	0	0	0	0
0.29	-7.07546	250.627	-23.3363	-0.238088	0.006	-0.423083	0	-0.702455	0	-14.2926	280.587	25.5501	-0.222865	0.006	-0.753608	0	1.86748	0	0	0	0	0	0	0	0	0	0
0.3	-7.01046	247.333	-22.7187	-0.239191	0.006	-0.423283	0	-0.688233	0	-14.0711	277.696	25.1904	-0.2238	0.006	-0.75348	0	1.80802	0	0	0	0	0	0	0	0	0	0
0.31	-6.83829	243.956	-22.1046	-0.24047	0.006	-0.423492	0	-0.678066	0	-13.672	274.469	24.7656	-0.224925	0.006	-0.753337	0	1.74703	0	0	0	0	0	0	0	0	0	0
0.32	-6.56056	240.474	-21.4952	-0.241907	0.006	-0.423709	0	-0.671724	0	-13.1045	270.855	24.2817	-0.226218	0.006	-0.753182	0	1.68448	0	0	0	0	0	0	0	0	0	0
0.33	-6.17833	236.861	-20.8892	-0.243484	0.006	-0.42393	0	-0.669034	0	-12.3802	266.803	23.7471	-0.227651	0.006	-0.753022	0	1.62036	0	0	0	0	0	0	0	0	0	0
0.34	-5.69071	233.091	-20.283	-0.245178	0.006	-0.424152	0	-0.669744	0	-11.5112	262.268	23.1714	-0.229197	0.006	-0.752861	0	1.55488	0	0	0	0	0	0	0	0	0	0
0.35	-5.09443	229.143	-19.671	-0.246973	0.006	-0.424376	0	-0.673521	0	-10.5095	257.218	22.5653	-0.230832	0.006	-0.752706	0	1.48872	0	0	0	0	0	0	0	0	0	0
0.36	-4.3856	225.006	-19.048	-0.248854	0.006	-0.424599	0	-0.679898	0	-9.38683	251.638	21.9411	-0.232534	0.006	-0.752561	0	1.42285	0	0	0	0	0	0	0	0	0	0
0.37	-3.56256	220.686	-18.4119	-0.250807	0.006	-0.424824	0	-0.688183	0	-8.156	245.543	21.3125	-0.234286	0.006	-0.752434	0	1.35856	0	0	0	0	0	0	0	0	0	0
0.38	-2.62887	216.21	-17.7654	-0.252819	0.006	-0.425049	0	-0.697461	0	-6.83134	238.968	20.6945	-0.236072	0.006	-0.752329	0	1.29715	0	0	0	0	0	0	0	0	0	0
0.39	-1.59518	211.624	-17.1184	-0.254877	0.006	-0.425272	0	-0.706749	0	-5.42951	231.974	20.1026	-0.237884	0.006	-0.75225	0	1.2399	0	0	0	0	0	0	0	0	0	0
0.4	-0.479163	206.994	-16.487	-0.256971	0.006	-0.425487	0	-0.715122	0	-3.97023	224.638	19.5512	-0.23971	0.006	-0.752202	0	1.18809	0	0	0	0	0	0	0	0	0	0
0.41	0.696501	202.402	-15.8926	-0.259089	0.006	-0.425687	0	-0.72185	0	-2.47837	217.044	19.0509	-0.241542	0.006	-0.752187	0	1.14286	0	0	0	0	0	0	0	0	0	0
0.42	1.90758	197.942	-15.36	-0.261222	0.006	-0.425865	0	-0.72653	0	-0.985839	209.277	18.6079	-0.243368	0.006	-0.752206	0	1.10511	0	0	0	0	0	0	0	0	0	0
0.43	3.13167	193.705	-14.9133	-0.263364	0.006	-0.426008	0	-0.729226	0	0.468573	201.422	18.2215	-0.245176	0.006	-0.752259	0	1.0753	0	0	0	0	0	0	0	0	0	0
0.44	4.35077	189.761	-14.5702	-0.26551	0.006	-0.42611	0	-0.730501	0	1.84111	193.568	17.8848	-0.246956	0.006	-0.752342	0	1.05354	0	0	0	0	0	0	0	0	0	0
0.45	5.55403	186.139	-14.3358	-0.267662	0.006	-0.426164	0	-0.731428	0	3.08638	185.827	17.5874	-0.248697	0.006	-0.752452	0	1.03968	0	0	0	0	0	0	0	0	0	0
0.46	6.73774	182.817	-14.2003	-0.269822	0.006	-0.426171	0	-0.73364	0	4.16184	178.344	17.3206	-0.250391	0.006	-0.752582	0	1.03341	0	0	0	0	0	0	0	0	0	0
0.47	7.89798	179.738	-14.1417	-0.271989	0.006	-0.426134	0	-0.739198	0	5.03406	171.303	17.0799	-0.252028	0.006	-0.752728	0	1.03437	0	0	0	0	0	0	0	0	0	0
0.48	9.0209	176.836	-14.1311	-0.274155	0.006	-0.42606	0	-0.750207	0	5.68551	164.915	16.864	-0.253596	0.006	-0.752887	0	1.04229	0	0	0	0	0	0	0	0	0	0
0.49	10.0805	174.079	-14.1381	-0.276296	0.006	-0.425957	0	-0.768514	0	6.11995	159.393	16.6728	-0.255075	0.006	-0.753052	0	1.05717	0	0	0	0	0	0	0	0	0	0
0.5	11.0457	171.494	-14.1343	-0.278376	0.006	-0.42583	0	-0.795503	0	6.36311	154.939	16.5057	-0.256442	0.006	-0.753218	0	1.07923	0	0	0	0	0	0	0	0	0	0
0.51	11.8919	169.173	-14.0958	-0.280345	0.006	-0.425684	0	-0.832039	0	6.46106	151.719	16.3597	-0.25767	0.006	-0.753379	0	1.1089	0	0	0	0	0	0	0	0	0	0
0.52	12.6094	167.266	-14.008	-0.282145	0.006	-0.425519	0	-0.878492	0	6.47582	149.855	16.2248	-0.258738	0.006	-0.753526	0	1.14694	0	0	0	0	0	0	0	0	0	0
0.53	13.2025	165.966	-13.868	-0.283706	0.006	-0.425333	0	-0.934963	0	6.47375	149.417	16.0841	-0.259626	0.006	-0.753649	0	1.19441	0	0	0	0	0	0	0	0	0	0
0.54	13.6864	165.489	-13.6841	-0.284951	0.006	-0.425121	0	-1.00156	0	6.51129	150.439	15.9185	-0.260313	0.006	-0.75374	0	1.25251	0	0	0	0	0	0	0	0	0	0
0.55	14.0827	166.058	-13.4715	-0.285805	0.006	-0.424874	0	-1.07873	0	6.62666	152.931	15.7139	-0.260779	0.006	-0.753801	0	1.32259	0	0	0	0	0	0	0	0	0	0
0.56	14.4201	167.874	-13.2482	-0.286208	0.006	-0.424585	0	-1.16744	0	6.8395	156.907	15.4665	-0.261007	0.006	-0.753838	0	1.40609	0	0	0	0	0	0	0	0	0	0
0.57	14.7322	171.094	-13.0346	-0.286129	0.006	-0.424244	0	-1.26929	0	7.15539	162.387	15.1837	-0.260993	0.006	-0.753866	0	1.50463	0	0	0	0	0	0	0	0	0	0
0.58	15.049	175.82	-12.8597	-0.28557	0.006	-0.423843	0	-1.3867	0	7.57439	169.375	14.8816	-0.260746	0.006	-0.753901	0	1.62015	0	0	0	0	0	0	0	0	0	0
0.59	15.3829	182.098	-12.7626	-0.284569	0.006	-0.423377	0	-1.52263	0	8.0987	177.817	14.5807	-0.260292	0.006	-0.753959	0	1.75484	0	0	0	0	0	0	0	0	0	0
0.6	15.7219	189.901	-12.7863	-0.283183	0.006	-0.422842	0	-1.67985	0	8.73235	187.579	14.305	-0.259667	0.006	-0.754056	0	1.91105	0	0	0	0	0	0	0	0	0	0
0.61	16.0366	199.116	-12.9651	-0.281491	0.006	-0.422246	0	-1.85996	0	9.47107	198.443	14.0847	-0.258908	0.006	-0.754201	0	2.09085	0	0	0	0	0	0	0	0	0	0
0.62	16.2899	209.539	-13.3161	-0.279571	0.006	-0.4216	0	-2.06298	0	10.2864	210.128	13.9572	-0.258042	0.006	-0.754405	0	2.29525	0	0	0	0	0	0	0	0	0	0
0.63	16.4363	220.892	-13.8366	-0.2775	0.006	-0.42092	0	-2.28757	0	11.1155	222.311	13.9614	-0.257083	0.006	-0.754674	0	2.52349	0	0	0	0	0	0	0	0	0	0
0.64	16.4171	232.835	-14.505	-0.275337	0.006	-0.420223	0	-2.53136	0	11.8653	234.654	14.1254	-0.256033	0.006	-0.755007	0	2.77276	0	0	0	0	0	0	0	0	0	0
0.65	16.1624	244.998	-15.2841	-0.27312	0.006	-0.419524	0	-2.79145	0	12.4318	246.848	14.4547	-0.25489	0.006	-0.755396	0	3.03848	0	0	0	0	0	0	0	0	0	0
0.66	15.6053	257	-16.1238	-0.270874	0.006	-0.418836	0	-3.06487	0	12.7232	258.651	14.9247	-0.253654	0.006	-0.755821	0	3.31482	0	0	0	0	0	0	0	0	0	0
0.67	14.6952	268.486	-16.966	-0.268612	0.006	-0.418171	0	-3.3487	0	12.6779	269.896	15.4836	-0.252332	0.006	-0.75626	0	3.59552	0	0	0	0	0	0	0	0	0	0
0.68	13.4052	279.176	-17.7514	-0.266337	0.006	-0.417539	0	-3.64041	0	12.2707	280.486	16.0636	-0.250937	0.006	-0.756687	0	3.87452	0	0	0	0	0	0	0	0	0	0
0.69	11.734	288.89	-18.4232	-0.264052	0.006	-0.416955	0	-3.93793	0	11.5058	290.371	16.5932	-0.249485	0.006	-0.757078	0	4.14638	0	0	0	0	0	0	0	0	0	0
0.7	9.7067	297.539	-18.9308	-0.261762	0.006	-0.41643	0	-4.23922	0	10.4047	299.52	17.0098	-0.247995	0.006	-0.757416	0	4.40641	0	0	0	0	0	0	0	0	0	0
0.71	7.37351	305.119	-19.2358	-0.259476	0.006	-0.415976	0	-4.542	0	9.00002	307.912	17.2686	-0.246485	0.006	-0.757689	0	4.65082	0	0	0	0	0	0	0	0	0	0
0.72	4.80614	311.685	-19.316	-0.25721	0.006	-0.415603	0	-4.84365	0	7.33466	315.522	17.3447	-0.244973	0.006	-0.757893	0	4.8768	0	0	0	0	0	0	0	0	0	0
0.73	2.09106	317.333	-19.1676	-0.254987	0.006	-0.415313	0	-5.14111	0	5.46477	322.328	17.2319	-0.243477	0.006	-0.758031	0	5.08266	0	0	0	0	0	0	0	0	0	0
0.74	-0.678265	322.175	-18.8038	-0.252833	0.006	-0.415109	0	-5.43071	0	3.46164	328.326	16.9392	-0.242019	0.006	-0.758109	0	5.26803	0	0	0	0	0	0	0	0	0	0
0.75	-3.40961	326.316	-18.2539	-0.25078	0.006	-0.414987	0	-5.70814	0	1.41189	333.547	16.4858	-0.24062	0.006	-0.758134	0	5.4337	0	0	0	0	0	0	0	0	0	0
0.76	-6.01649	329.859	-17.5581	-0.248856	0.006	-0.414942	0	-5.96875	0	-0.58602	338.054	15.896	-0.239307	0.006	-0.758116	0	5.58161	0	0	0	0	0	0	0	0	0	0
0.77	-8.42057	332.916	-16.7592	-0.247088	0.006	-0.414965	0	-6.20793	0	-2.43078	341.936	15.1944	-0.238108	0.006	-0.758067	0	5.71472	0	0	0	0	0	0	0	0	0	0
0.78	-10.5544	335.617	-15.8942	-0.245505	0.006	-0.415051	0	-6.42134	0	-4.03131	345.286	14.4037	-0.237051	0.006	-0.757995	0	5.83667	0	0	0	0	0	0	0	0	0	0
0.79	-12.3618	338.104	-14.992	-0.244128	0.006	-0.415195	0	-6.60531	0	-5.31947	348.189	13.543	-0.236156	0.006	-0.757908	0	5.95148	0	0	0	0	0	0	0	0	0	0
